<?xml version="1.0" encoding="UTF-8"?><svg id="a" xmlns="http://www.w3.org/2000/svg" viewBox="0 0 299 299"><defs><style>.b{fill:#fff;}</style></defs><path class="b" d="M236.72,149.76c-.69-2.34-1.59-4.63-2.72-6.87-5.58-11.02-16.21-19.22-28.13-22.25-12.23-3.1-25.42-3.9-38.04-3.6-.45.01-.9.02-1.35.04-.25,0-.38-.26-.26-.47l27.57-47.24.22-.36-6.15-3.96c-.15-.1-.35-.05-.44.11l-7.95,14.37c-.07.13-.23.19-.38.14l-48.38-17.42-.18-.07-.18.11c-4.86,2.92-8.6,6.69-12.73,10.41-4.5,4.04-9.15,7.66-13.23,12.18-8.82,9.78-20.11,24.17-18.09,38.08.02.14-.07.24-.2.27-11.12,2.91-20.34,13.08-21.18,24.69-.47,6.52,1.68,13.19,5.88,18.2,4.73,5.64,11.75,8.99,18.94,10.61,10.39,2.34,22.04,2.29,32.63,1.28h.62c.36,0,.73-.04,1.09-.04l-9.15,15.69-.11.29s-.37-.07-.37-.07c-12.74-2.15-27.34-2.98-39.48,2.27-7.32,3.17-13.72,9.74-14.32,17.7-.44,5.86,2.37,11.69,6.73,15.63,4.36,3.94,10.11,6.11,15.93,6.89,11.85,1.59,24.56-1.25,35.74-5.05,4.76-1.62,9.44-3.5,14.03-5.56,1-.45,7.1-4.29,8.03-3.87.33.15.69.29,1.02.44,12.93,5.16,26.66,12.17,26.88,12.28l.22.11c8.47-4.91,17.22-9.43,25.51-14.59,12.17-7.57,23.21-16.99,32.59-27.83,9.77-11.29,13.63-28.18,9.41-42.53ZM101.54,105.19c-.84-9.3,7.08-15.94,7.41-16.2,7.12-7.55,26.22-4.1,27.02-3.96,12.82,1.82,32.62,13.47,32.83,13.58l.36.22-11.22,20.38-.22.04-26.84,2c-1.49.07-2.87.11-4.18.11-11.99,0-15.76-2.91-16.31-3.38-10.02-4.76-8.86-12.71-8.86-12.78ZM113.96,158.07c-9.44,0-19.29-.76-23.72-3.6-.04,0-11.73-4.43-10.31-15.76.04-.29.73-7.12,7.08-11.22l.51-.33.18.58c1.9,6.08,6.09,10.78,12.41,11.94,14.98,2.74,29.8,1.65,44.87.63.25-.02.41.25.29.46l-9.12,16.17-.22.04c-.8.07-11.11,1.09-21.97,1.09ZM120.03,225.19c-7.55,3.45-15.79,5.34-24.03,6.1-6.36.58-14.21,1.29-19.68-2.55-3.59-2.52-5.65-7.63-3.53-11.47,1.71-3.09,5.41-4.44,8.87-5.16,9.23-1.93,18.23-.59,27.36,1.11,5.69,1.06,11.85,2.05,17.31,4.09,2.22.36,4.87,1.09,7.7,2.03-7.92,3.45-13.84,5.78-13.98,5.85ZM167.72,202.74c-1.56,1-3.33,1.99-5.18,3.05l-.27.03c-9.23-3.26-41.3-11.66-41.62-11.73l-.58-.18.29-.51,9.26-15.69c.36,0,.76-.04,1.13-.07,13.26-.88,26.39-3.07,39.71-3.62,2.53-.1,5.09-.17,7.55.41,2.46.58,4.85,1.9,6.21,4.03,1.8,2.81,1.5,6.6-.02,9.57s-4.1,5.26-6.76,7.27c-3.2,2.41-6.3,5.38-9.72,7.43ZM215.77,191.77c-5.93,10.22-15.94,18.79-25.35,24.44l-.22.15-.22-.11-19-7.92s1.05-.4,1.05-.4c7.83-2.95,14.9-7.87,21.33-13.15,5.63-4.62,11.75-9.01,13.23-16.64,1.08-5.56-.45-11.58-4.06-15.95-3.7-4.48-9.28-7.08-14.98-8.25-14.52-2.98-30.84-.43-45.41,1.39l-.91.11,10.1-16.53s.22,0,.22,0c10.91-1.46,22.63-2.18,33.59-.8,8.8,1.11,17.59,4.08,24.29,9.9,6.99,6.06,11.31,15.09,11.64,24.34.25,6.87-1.83,13.42-5.31,19.41Z"/></svg>